<svg xmlns="http://www.w3.org/2000/svg" version="1.1" xmlns:xlink="http://www.w3.org/1999/xlink" xmlns:svgjs="http://svgjs.dev/svgjs" width="1000" height="1000" viewBox="0 0 1000 1000"><g transform="matrix(1,0,0,1,-0.14221556886212738,-0.14221556886229791)"><svg viewBox="0 0 334 334" data-background-color="#8abe53" preserveAspectRatio="xMidYMid meet" height="1000" width="1000" xmlns="http://www.w3.org/2000/svg" xmlns:xlink="http://www.w3.org/1999/xlink"><g id="tight-bounds" transform="matrix(1,0,0,1,0.04749999999998522,0.04750000000001364)"><svg viewBox="0 0 333.90454557049503 333.90454557049503" height="333.90454557049503" width="333.90454557049503"><g><svg></svg></g><g><svg viewBox="0 0 333.90454557049503 333.90454557049503" height="333.90454557049503" width="333.90454557049503"><g><path d="M0 166.952c0-92.205 74.747-166.952 166.952-166.952 92.205 0 166.952 74.747 166.953 166.952 0 92.205-74.747 166.952-166.953 166.953-92.205 0-166.952-74.747-166.952-166.953zM166.952 328.684c89.322 0 161.732-72.41 161.732-161.732 0-89.322-72.41-161.732-161.732-161.731-89.322 0-161.732 72.41-161.731 161.731 0 89.322 72.41 161.732 161.731 161.732z" data-fill-palette-color="tertiary" fill="#ffffff" stroke="transparent"></path><ellipse rx="160.27418187383762" ry="160.27418187383762" cx="166.95227278524752" cy="166.95227278524752" fill="#ffffff" stroke="transparent" stroke-width="0" fill-opacity="1" data-fill-palette-color="tertiary"></ellipse></g><g transform="matrix(1,0,0,1,83.81517351827553,71.17305217166896)"><svg viewBox="0 0 166.27419853394397 191.55844122715712" height="191.55844122715712" width="166.27419853394397"><g><svg viewBox="0 0 213.15844122715708 245.5720676804171" height="191.55844122715712" width="166.27419853394397"><g transform="matrix(1,0,0,1,0,143.9792845031781)"><svg viewBox="0 0 213.15844122715708 101.592783177239" height="101.592783177239" width="213.15844122715708"><g id="textblocktransform"><svg viewBox="0 0 213.15844122715708 101.592783177239" height="101.592783177239" width="213.15844122715708" id="textblock"><g><svg viewBox="0 0 213.15844122715708 74.21377064001601" height="74.21377064001601" width="213.15844122715708"><g transform="matrix(1,0,0,1,0,0)"><svg width="213.15844122715708" viewBox="0.6000000238418579 -35 103.38999938964844 36" height="74.21377064001601" data-palette-color="#8abe53"><path d="M18.1 0.7L18.1 0.7 17.3 1 5-31.3Q4.55-32.4 3.98-32.95 3.4-33.5 2.3-33.5L2.3-33.5 0.6-33.5 0.6-35 13.3-35 13.3-33.5 11.6-33.5Q9.5-33.5 9.5-32.2L9.5-32.2Q9.5-31.6 10-30.4L10-30.4 19.7-5.2 29.7-31.2 30.2-32.7Q30.2-33.2 29.6-33.35 29-33.5 27.2-33.5L27.2-33.5 26.1-33.5 26.1-35 36-35 36-33.5 35.4-33.5Q33.7-33.5 32.93-32.95 32.15-32.4 31.7-31L31.7-31 20.7-2.4Q18.9-1.1 18.1 0.7ZM42.42-34.8Q43.55-34.8 44.17-34.05 44.8-33.3 44.8-32.13 44.8-30.95 43.85-30.18 42.9-29.4 41.77-29.4 40.65-29.4 40.02-30.15 39.4-30.9 39.4-32.02 39.4-33.15 40.35-33.98 41.3-34.8 42.42-34.8ZM47.9-1.4L47.9 0 37.8 0 37.8-1.4 38.6-1.4Q39.95-1.4 40.32-1.85 40.7-2.3 40.7-3.3L40.7-3.3 40.7-18.3Q40.7-19.25 40.07-19.68 39.45-20.1 37.8-20.1L37.8-20.1 37.8-21.5Q38.8-21.5 40.82-22.23 42.85-22.95 43.9-23.6L43.9-23.6 44.8-23.8 44.8-3.6Q44.8-2.8 44.87-2.45 44.95-2.1 45.45-1.75 45.95-1.4 47-1.4L47-1.4 47.9-1.4ZM77.2-1.4L77.2 0 68.6 0 68.6-1.4 68.8-1.4Q69.35-1.4 69.72-1.95 70.1-2.5 70.1-3.3L70.1-3.3 70.1-16Q70.1-18.25 69.02-19.43 67.95-20.6 66-20.6L66-20.6Q63.2-20.6 61.05-17.6 58.9-14.6 58.9-13.1L58.9-13.1 58.9-3.6Q58.9-2.8 58.97-2.45 59.05-2.1 59.55-1.75 60.05-1.4 61.1-1.4L61.1-1.4 62-1.4 62 0 51.9 0 51.9-1.4 52.7-1.4Q54.05-1.4 54.42-1.85 54.8-2.3 54.8-3.3L54.8-3.3 54.8-18.3Q54.8-19.25 54.17-19.68 53.55-20.1 51.9-20.1L51.9-20.1 51.9-21.5Q52.9-21.5 54.92-22.23 56.95-22.95 58-23.6L58-23.6 58.9-23.8 58.9-17.4Q60.05-20.55 62.45-22.28 64.85-24 68.3-24L68.3-24Q70.1-24 71.35-23.2 72.6-22.4 73.15-21.15L73.15-21.15Q74.1-19 74.1-16.9L74.1-16.9 74.1-3.4Q74.1-2.7 74.2-2.35L74.2-2.35Q74.45-1.4 76.3-1.4L76.3-1.4 77.2-1.4ZM90.69 0.7L90.69 0.7Q86.29 0.7 83.34-2.6 80.39-5.9 80.39-10.3L80.39-10.3Q80.39-15.9 84.62-19.95 88.84-24 93.54-24 98.24-24 101.12-20.68 103.99-17.35 103.99-13L103.99-13Q103.99-7.55 99.97-3.43 95.94 0.7 90.69 0.7ZM83.89-13Q83.89-8.35 86.72-5.28 89.54-2.2 93.07-2.2 96.59-2.2 98.59-4.85 100.59-7.5 100.59-10.3L100.59-10.3Q100.59-14.55 97.97-17.73 95.34-20.9 91.59-20.9 87.84-20.9 85.87-18.38 83.89-15.85 83.89-13L83.89-13Z" opacity="1" transform="matrix(1,0,0,1,0,0)" fill="#8abe53" class="undefined-text-0" data-fill-palette-color="quaternary" id="text-0"></path></svg></g></svg></g><g transform="matrix(1,0,0,1,0,91.73386075762843)"><svg viewBox="0 0 125.14532084446392 9.858922419610568" height="9.858922419610568" width="125.14532084446392"><g transform="matrix(1,0,0,1,0,0)"><svg width="125.14532084446392" viewBox="1.2200000286102295 -30.979999542236328 402.5299987792969 31.709999084472656" height="9.858922419610568" data-palette-color="#8abe53"><path d="M15.7 0L16.04-2.03 10.25-2.98 10.25-28.47Q10.5-28.49 11.32-28.55 12.13-28.61 12.74-28.61L12.74-28.61Q16.67-28.61 18.57-26.45 20.46-24.29 20.46-20.9L20.46-20.9Q20.46-17.63 18.53-15.95 16.6-14.28 12.67-14.18L12.67-14.18 11.38-14.16 11.82-12.13 12.52-12.11Q13.6-12.06 14.26-12.06L14.26-12.06Q17.24-12.06 19.82-13.29 22.41-14.53 23.96-16.75 25.51-18.97 25.51-21.78L25.51-21.78Q25.51-26.71 22.14-28.67 18.77-30.64 13.26-30.64L13.26-30.64Q10.5-30.64 7.71-30.35 4.93-30.05 1.64-29.57L1.64-29.57 1.39-27.69 5.57-26.95 5.57-2.95 1.49-1.81 1.22 0 15.7 0ZM24 0L35.42 0 35.69-1.95 31.15-3.03 33.62-10.55 43.85-10.55 46.51-3.15 42.33-1.81 42.04 0 54.61 0 54.83-1.95 51.49-3.03 41.97-30.96 38.28-30.2 27.85-3.15 24.22-1.81 24 0ZM34.54-13.04L39.08-25.24 43.14-13.04 34.54-13.04ZM70.43 0L70.67-2.03 66.08-3.08 66.08-13.11 70.33-13.11 74.21-6.18Q75.97-3.03 78.08-1.26 80.2 0.51 82.91 0.51L82.91 0.51Q84.44 0.51 85.83 0.02L85.83 0.02 86.2-1.64 85.4-1.88Q83.93-2.32 82.88-3.09 81.83-3.86 80.9-4.98 79.98-6.1 78.24-8.52L78.24-8.52 73.85-14.6 73.85-14.62Q76.07-15.41 77.64-16.77 79.22-18.14 80.04-19.78 80.85-21.41 80.85-23.02L80.85-23.02Q80.85-27.08 77.64-28.83 74.43-30.59 68.6-30.59L68.6-30.59Q66.16-30.59 63.5-30.3 60.83-30 57.47-29.47L57.47-29.47 57.22-27.59 61.4-26.86 61.4-2.95 57.32-1.81 57.05 0 70.43 0ZM66.08-28.42Q66.3-28.44 67.12-28.49 67.94-28.54 69.01-28.54L69.01-28.54Q71.14-28.54 72.66-27.66 74.19-26.78 75-25.22 75.8-23.66 75.8-21.66L75.8-21.66Q75.8-19.24 74.38-17.63 72.97-16.02 70.92-15.33L70.92-15.33 66.08-15.33 66.08-28.42ZM86-30.37L86.2-22.51 88.42-22.19 89.71-28.13 96.92-28.13 96.92-2.95 92.79-1.81 92.62 0 105.78 0 106.12-1.95 101.6-2.78 101.6-28.13 109.05-28.13 109.98-22.49 112.3-22.12 113.13-30.37 86-30.37ZM113.98-28.52L118.42-27.27 118.42-2.95 114.35-1.81 114.15 0 125.75 0 126.02-1.95 121.55-2.78 121.55-23.46 137.73 0.73 141.47-0.02 141.47-27.59 145.55-28.52 145.86-30.37 134.27-30.37 133.97-28.52 138.49-27.49 138.49-6.69 122.79-30.37 114.25-30.37 113.98-28.52ZM146.62-28.52L151.06-27.49 151.06-2.95 146.98-1.81 146.79 0 171.57 0 172.3-7.64 170.28-7.96 167.88-2.34 155.8-2.34 155.8-14.23 162.49-14.23 163.32-9.96 165.39-10.28 166.22-19.78 163.9-19.43 162.88-16.5 155.8-16.5 155.8-28.13 167.3-28.13 168.3-22.88 170.42-22.56 171.18-30.37 146.89-30.37 146.62-28.52ZM186.24 0L186.48-2.03 181.89-3.08 181.89-13.11 186.14-13.11 190.02-6.18Q191.78-3.03 193.89-1.26 196.01 0.51 198.72 0.51L198.72 0.51Q200.25 0.51 201.65 0.02L201.65 0.02 202.01-1.64 201.21-1.88Q199.74-2.32 198.69-3.09 197.64-3.86 196.71-4.98 195.79-6.1 194.05-8.52L194.05-8.52 189.66-14.6 189.66-14.62Q191.88-15.41 193.45-16.77 195.03-18.14 195.85-19.78 196.66-21.41 196.66-23.02L196.66-23.02Q196.66-27.08 193.45-28.83 190.24-30.59 184.41-30.59L184.41-30.59Q181.97-30.59 179.31-30.3 176.65-30 173.28-29.47L173.28-29.47 173.03-27.59 177.21-26.86 177.21-2.95 173.13-1.81 172.86 0 186.24 0ZM181.89-28.42Q182.11-28.44 182.93-28.49 183.75-28.54 184.82-28.54L184.82-28.54Q186.95-28.54 188.47-27.66 190-26.78 190.81-25.22 191.61-23.66 191.61-21.66L191.61-21.66Q191.61-19.24 190.19-17.63 188.78-16.02 186.73-15.33L186.73-15.33 181.89-15.33 181.89-28.42ZM211.07 0.59Q213.87 0.59 216.38-0.57 218.88-1.73 220.4-3.86 221.93-5.98 221.93-8.72L221.93-8.72Q221.93-10.67 220.93-12.11 219.93-13.55 218.49-14.54 217.05-15.53 214.61-16.82L214.61-16.82Q212.26-18.09 210.91-18.99 209.55-19.9 208.61-21.22 207.67-22.53 207.67-24.29L207.67-24.29Q207.67-26.59 208.92-27.76 210.16-28.93 212.12-28.93L212.12-28.93Q213.02-28.93 213.9-28.55 214.78-28.17 215.4-27.62 216.02-27.08 216.27-26.61L216.27-26.61 216.88-21.95 219.29-21.66Q219.37-22.71 219.56-25.05 219.76-27.39 219.83-28.54L219.83-28.54Q216.9-30.98 212.95-30.98L212.95-30.98Q210.48-30.98 208.31-29.96 206.13-28.93 204.79-26.98 203.45-25.02 203.45-22.36L203.45-22.36Q203.45-20.07 204.56-18.38 205.67-16.7 207.25-15.61 208.82-14.53 211.38-13.16L211.38-13.16Q213.46-12.04 214.64-11.25 215.83-10.47 216.63-9.41 217.44-8.35 217.44-7.01L217.44-7.01Q217.44-5.3 216.57-4.15 215.71-3 214.37-2.44 213.04-1.88 211.65-1.88L211.65-1.88Q210.04-1.88 208.69-2.59 207.33-3.3 206.62-4.32L206.62-4.32 205.67-8.91 203.18-9.25 202.86-2.25Q204.11-1.03 206.32-0.22 208.53 0.59 211.07 0.59L211.07 0.59ZM230.98-28.52L235.43-27.49 235.43-2.95 231.35-1.81 231.15 0 244.34 0 244.58-1.95 240.16-2.78 240.16-27.59 244.29-28.52 244.53-30.37 231.25-30.37 230.98-28.52ZM245.65-28.52L250.1-27.27 250.1-2.95 246.02-1.81 245.82 0 257.42 0 257.69-1.95 253.22-2.78 253.22-23.46 269.41 0.73 273.14-0.02 273.14-27.59 277.22-28.52 277.54-30.37 265.94-30.37 265.65-28.52 270.17-27.49 270.17-6.69 254.47-30.37 245.92-30.37 245.65-28.52ZM284.25-28.52L287.67-27.49 295.6 0.59 299.58-0.1 306.54-23.22 312.93 0.59 316.69-0.1 325.6-27.59 328.61-28.52 328.88-30.37 317.91-30.37 317.65-28.52 322.06-27.49 315.69-7.01 309.64-29.76 305.34-29.15 298.48-6.62 292.57-27.59 296.65-28.52 297.02-30.37 284.47-30.37 284.25-28.52ZM330.75-28.52L335.2-27.49 335.2-2.95 331.12-1.81 330.92 0 344.11 0 344.35-1.95 339.93-2.78 339.93-27.59 344.06-28.52 344.3-30.37 331.02-30.37 330.75-28.52ZM345.42-28.52L349.87-27.27 349.87-2.95 345.79-1.81 345.59 0 357.19 0 357.46-1.95 352.99-2.78 352.99-23.46 369.18 0.73 372.91-0.02 372.91-27.59 376.99-28.52 377.31-30.37 365.71-30.37 365.42-28.52 369.94-27.49 369.94-6.69 354.24-30.37 345.69-30.37 345.42-28.52ZM378.06-28.52L382.51-27.49 382.51-2.95 378.43-1.81 378.23 0 403.01 0 403.75-7.64 401.72-7.96 399.33-2.34 387.24-2.34 387.24-14.23 393.93-14.23 394.76-9.96 396.84-10.28 397.67-19.78 395.35-19.43 394.32-16.5 387.24-16.5 387.24-28.13 398.74-28.13 399.74-22.88 401.87-22.56 402.62-30.37 378.33-30.37 378.06-28.52Z" opacity="1" transform="matrix(1,0,0,1,0,0)" fill="#8abe53" class="undefined-text-1" data-fill-palette-color="quaternary" id="text-1"></path></svg></g></svg></g></svg></g></svg></g><g transform="matrix(1,0,0,1,40.713262274387006,0)"><svg viewBox="0 0 131.73191667838307 126.45919438556567" height="126.45919438556567" width="131.73191667838307"><g><svg xmlns="http://www.w3.org/2000/svg" xmlns:xlink="http://www.w3.org/1999/xlink" xmlns:a="http://ns.adobe.com/AdobeSVGViewerExtensions/3.0/" version="1.1" x="0" y="0" viewBox="0.00044906139373779297 0.00013375282287597656 57.665977478027344 55.35783004760742" enable-background="new -27.51 -23.204 100 100" xml:space="preserve" height="126.45919438556567" width="131.73191667838307" class="icon-icon-0" data-fill-palette-color="quaternary" id="icon-0"><path d="M56.06 9.112c-1.357 1.528-3.67 1.12-4.871 0.212-2.684-2.032-4.465-5.878-7.154-7.839-1.879-1.37-5.051-2.419-7.479-0.2-1.773 1.621-1.328 5.25 0.701 7.307-0.92-0.293-1.795-0.781-2.693-1.115-2.148-0.799-5.443 0.225-6.82 2.254l0.412 1.064c0.346-0.544 0.84-1.03 1.537-1.301 3.645-1.416 6.277 0.337 8.855 1.885-0.273 0.173-0.781 0.273-1.07 0.588-0.656 0.715-0.949 1.934-0.455 2.95 1.705 3.53 5.256 4.645 8.871 4.249 7.848-0.859 11.725-6.783 11.771-12.521C57.685 4.081 57.511 7.477 56.06 9.112z" fill="#8abe53" data-fill-palette-color="quaternary"></path><path d="M7.106 42.713c-0.352 0.251-1.078 1.371-1.338 1.72-2.287 3.102-1.207 7.353 1.504 9.945 0.563 0.536 2.172 1.574 3.414 0.537 2.813-2.356 4.009-6.787 2.582-10.3C12.358 42.376 9.292 41.141 7.106 42.713z" fill="#8abe53" data-fill-palette-color="quaternary"></path><path d="M3.69 28.951c-1.369 2.559-0.994 6.343 1.684 8.199 2.088 1.438 5.027 0.353 6.112-1.616 1.817-3.302 1.408-8.085-2.843-9.81C7.054 25.076 4.78 26.906 3.69 28.951z" fill="#8abe53" data-fill-palette-color="quaternary"></path><path d="M0.81 13.488c-1.719 2.051-0.471 5.254 1.6 6.515 2.18 1.331 5.375 0.485 7.023-1.618 2.454-3.131 0.09-7.175-2.594-8.419C3.87 8.592 2.355 11.651 0.81 13.488z" fill="#8abe53" data-fill-palette-color="quaternary"></path><path d="M23.194 36.769c-0.778 2.797-3.664 5.273-6.881 4.767-2.505-0.402-3.879-3.218-3.305-5.39 0.967-3.646 4.566-6.82 8.832-5.132C23.438 31.644 23.818 34.539 23.194 36.769z" fill="#8abe53" data-fill-palette-color="quaternary"></path><path d="M35.957 27.578c-0.172 2.67-3.287 4.125-5.656 3.605-2.494-0.543-4.223-3.361-3.959-6.021 0.387-3.959 4.891-5.249 7.689-4.297C37.126 21.923 36.109 25.182 35.957 27.578z" fill="#8abe53" data-fill-palette-color="quaternary"></path><path d="M14.972 15.574c-1.16 0.493-1.895 2.025-2.523 3.508-0.097 0.227-0.051 1.341 0.079 1.766 1.071 3.557 5.214 5.682 8.761 4.754 2.331-0.611 2.534-4.217 1.764-6.665C22.019 15.659 17.857 14.357 14.972 15.574z" fill="#8abe53" data-fill-palette-color="quaternary"></path><polygon points="33.833,17.254 34.455,15.707 25.501,12.119 24.542,11.735 8.687,5.379 8.066,6.925 16.847,10.443 17.819,10.834 " fill="#8abe53" data-fill-palette-color="quaternary"></polygon></svg></g></svg></g><g></g></svg></g></svg></g></svg></g><defs></defs></svg><rect width="333.90454557049503" height="333.90454557049503" fill="none" stroke="none" visibility="hidden"></rect></g></svg></g></svg>